<?xml version="1.0" encoding="UTF-8"?> <!-- Generator: Adobe Illustrator 22.0.0, SVG Export Plug-In . SVG Version: 6.00 Build 0) --> <svg xmlns="http://www.w3.org/2000/svg" xmlns:xlink="http://www.w3.org/1999/xlink" id="Layer_1" x="0px" y="0px" viewBox="0 0 159.6 67.8" style="enable-background:new 0 0 159.6 67.8;" xml:space="preserve"> <style type="text/css"> .st0{fill:#1D1D1B;} .st1{fill:#E5332A;} .st2{fill:#39A935;} .st3{fill:#F8B133;} </style> <g> <g> <polygon class="st0" points="31.8,54.7 27.6,54.7 27.6,23.1 23.4,31.6 20.9,31.6 16.7,23.1 16.7,54.7 12.5,54.7 12.5,13 16.4,13 22.2,25.4 28.1,13 31.8,13 "></polygon> <path class="st0" d="M50.7,24.7c-0.9,2-2.8,3.4-5.1,3.4c-3.2,0-5.8-2.6-5.8-5.8s2.6-5.8,5.8-5.8c2.3,0,4.2,1.4,5.1,3.4H55 c-1.1-4.3-5-7.6-9.6-7.6c-5.5,0-9.9,4.5-9.9,9.9s4.5,9.9,9.9,9.9c4.7,0,8.6-3.2,9.6-7.6H50.7z"></path> <path class="st0" d="M50.7,47.8c-0.9,2-2.8,3.4-5.1,3.4c-3.2,0-5.8-2.6-5.8-5.8c0-3.2,2.6-5.8,5.8-5.8c2.3,0,4.2,1.4,5.1,3.4H55 c-1.1-4.3-5-7.6-9.6-7.6c-5.5,0-9.9,4.5-9.9,9.9s4.5,9.9,9.9,9.9c4.7,0,8.6-3.2,9.6-7.6H50.7z"></path> <g> <polygon class="st1" points="64.9,33.8 60.7,33.8 60.7,61.1 34,61.1 34,65.3 64.9,65.3 "></polygon> <polygon class="st2" points="1.8,65.3 34,65.3 34,61.1 6.1,61.1 6.1,6.6 34,6.6 34,2.3 1.8,2.3 "></polygon> <polygon class="st3" points="34,6.6 60.7,6.6 60.7,33.8 64.9,33.8 64.9,2.3 34,2.3 "></polygon> </g> </g> <g> <path class="st0" d="M95.3,2.2c3.1,0,5.2,1.9,5.2,5.4v8.2h-3.2V8.6c0-2.2-1.1-3.4-2.9-3.4c-1.8,0-3,1.1-3,3.4v7.2h-3.2V8.6 c0-2.2-1.3-3.3-3-3.3c-1.8,0-2.8,1.3-2.8,3.4v7.2h-3.2V2.5h3.2v1.3c0.9-1.1,2.1-1.6,4.3-1.6c1.8,0,3.3,0.8,4,1.9 C91.7,2.9,93.1,2.2,95.3,2.2z"></path> <path class="st0" d="M110.8,16.1c-4.1,0-7.3-2.9-7.3-6.9c0-4,2.9-7,7.3-7c2.6,0,4.3,1,5.6,2.3l-1.9,2.3c-0.9-1-2.1-1.8-3.7-1.8 c-2.3,0-4,1.8-4,4.1c0,2.4,1.8,4,4.2,4c1.5,0,2.7-0.7,3.7-1.9l1.9,2.2C115.2,15.1,113.6,16.1,110.8,16.1z"></path> <path class="st0" d="M126,16.1c-4.1,0-7.3-2.9-7.3-6.9c0-4,2.9-7,7.3-7c2.6,0,4.3,1,5.6,2.3l-1.9,2.3c-0.9-1-2.1-1.8-3.7-1.8 c-2.3,0-4,1.8-4,4.1c0,2.4,1.8,4,4.2,4c1.5,0,2.7-0.7,3.7-1.9l1.9,2.2C130.4,15.1,128.8,16.1,126,16.1z"></path> <path class="st0" d="M135.6,9.8V6.9h9.4v2.9H135.6z"></path> <path class="st0" d="M82.4,34.9c0,2,1,3.1,2.9,3.1h0.9v2.9h-1.7c-3.6,0-5.4-2.1-5.4-5V30h-1.8v-2.8h1.8v-4h3.2v4h3.8V30h-3.8V34.9 z"></path> <path class="st0" d="M96.3,40.9C92.2,40.9,89,38,89,34c0-4,3.2-7.1,7.4-7.1c4.3,0,7.3,3,7.3,7C103.7,38,100.5,40.9,96.3,40.9z M96.3,29.8c-2.6,0-4.1,1.8-4.1,4.1c0,2.2,1.7,4,4.2,4c2.6,0,4.1-1.8,4.1-4C100.5,31.7,98.8,29.8,96.3,29.8z"></path> <path class="st0" d="M122.8,27c3.1,0,5.2,1.9,5.2,5.4v8.2h-3.2v-7.2c0-2.2-1.1-3.4-2.9-3.4c-1.8,0-3,1.1-3,3.4v7.2h-3.2v-7.3 c0-2.2-1.3-3.3-3-3.3c-1.8,0-2.8,1.3-2.8,3.4v7.2h-3.2V27.3h3.2v1.3c0.9-1.1,2.1-1.6,4.3-1.6c1.8,0,3.3,0.8,4,1.9 C119.3,27.7,120.7,27,122.8,27z"></path> <path class="st0" d="M136.4,40.8c-2,0-4-0.9-5.5-2.3l1.8-2.4c1.2,1.2,2.8,1.9,4.1,1.9c1.2,0,1.8-0.5,1.8-1.2c0-1-1.5-1.2-3.1-1.7 c-2.1-0.6-4.2-1.8-4.2-4c0-2.7,2-4.2,4.8-4.2c2,0,3.7,0.6,5.1,1.7l-1.7,2.5c-1.1-1-2.2-1.4-3.5-1.4c-0.9,0-1.6,0.4-1.6,1.2 c0,1.1,1.3,1.1,3,1.6c2.1,0.6,4.4,1.4,4.4,3.9C141.8,39.5,139.4,40.8,136.4,40.8z"></path> <path class="st0" d="M157.8,40.6h-4l-4-5.6l-1.6,1.6v4H145V23.3h3.2v9.5l5.1-5.5h4.1l-5.4,5.6L157.8,40.6z"></path> <path class="st0" d="M77.4,65.3v-3.5H81v3.5H77.4z"></path> <path class="st0" d="M91.3,51.7c1.8,0,3.1,0.7,3.9,1.6V48h3.2v17.3h-3.2V64c-1.1,1-2.4,1.6-4,1.6c-3.6,0-6.8-2.6-6.8-6.9 C84.4,54.2,87.7,51.7,91.3,51.7z M91.5,62.7c2.2,0,3.8-1.8,3.8-4c0-2.3-1.7-4-3.8-4c-2.2,0-3.9,1.6-3.9,3.9 C87.6,60.9,89.2,62.7,91.5,62.7z"></path> <path class="st0" d="M109,62.9c1.5,0,2.7-0.7,3.8-1.9l1.9,1.9c-1.3,1.6-3.2,2.6-5.8,2.6c-4.1,0-7.2-2.6-7.2-6.9c0-4,2.8-7,6.9-7 c4.5,0,6.8,3.2,6.8,7.2c0,0.3-0.1,0.7-0.1,1h-10.2C105.5,62.1,107.1,62.9,109,62.9z M112.1,57.6c-0.2-2.1-1.3-3.2-3.5-3.2 c-2,0-3.4,1-3.6,3.2H112.1z"></path> </g> </g> </svg> 